<svg width="18" height="18" viewBox="0 0 18 18" fill="none" xmlns="http://www.w3.org/2000/svg">
<path fill-rule="evenodd" clip-rule="evenodd" d="M13 4C13 6.20914 11.2091 8 9 8C6.79086 8 5 6.20914 5 4C5 1.79086 6.79086 0 9 0C11.2091 0 13 1.79086 13 4ZM11 4C11 5.10457 10.1046 6 9 6C7.89543 6 7 5.10457 7 4C7 2.89543 7.89543 2 9 2C10.1046 2 11 2.89543 11 4Z" fill="#44F1A6"/>
<path fill-rule="evenodd" clip-rule="evenodd" d="M9 8H6C2.68629 8 0 10.6863 0 14V16C0 17.1046 0.89543 18 2 18H16C17.1046 18 18 17.1046 18 16V14C18 10.6863 15.3137 8 12 8H9ZM2 14C2 11.7909 3.79086 10 6 10H12C14.2091 10 16 11.7909 16 14V16H2L2 14Z" fill="#44F1A6"/>
</svg>
