<svg width="16" height="18" viewBox="0 0 16 18" fill="none" xmlns="http://www.w3.org/2000/svg">
<path fill-rule="evenodd" clip-rule="evenodd" d="M0 4.99595V13.0041C0 13.3322 0.176285 13.6357 0.462898 13.8009L7.53086 17.8747C7.82082 18.0418 8.17919 18.0418 8.46914 17.8747L15.5371 13.8009C15.8237 13.6357 16 13.3322 16 13.0041V4.99595C16 4.66775 15.8237 4.36429 15.5371 4.1991L8.46914 0.125341C8.17919 -0.0417807 7.82081 -0.0417802 7.53086 0.125342L0.462898 4.1991C0.176284 4.36429 0 4.66775 0 4.99595ZM7.76491 1.22044L1.3183 4.94719C1.17529 5.02987 1.08738 5.18143 1.08738 5.34532V11.4621L4.43993 5.9761C4.72129 5.5157 5.22546 5.23438 5.76923 5.23438H7.68932L2.4151 13.6869L2.98792 14.018L8.38835 5.23438H11.0291L5.10898 15.2442L7.76491 16.7796C7.91015 16.8635 8.08985 16.8635 8.23509 16.7796L10.5917 15.4172L8.07767 11.6129L9.5534 9.07684L12.8316 14.1224L13.4174 13.7837L10.0971 8.30835L11.3398 6.07972L14.9126 11.2783V5.34532C14.9126 5.18143 14.8247 5.02987 14.6817 4.94719L8.2351 1.22044C8.08985 1.13647 7.91015 1.13647 7.76491 1.22044Z" fill="#44F1A6"/>
</svg>
