<svg width="16" height="18" viewBox="0 0 16 18" fill="none" xmlns="http://www.w3.org/2000/svg">
<path fill-rule="evenodd" clip-rule="evenodd" d="M2.99765 3.41452L1.71784 4.69519C1.32757 5.08573 0.694743 5.08576 0.304431 4.69527C-0.0858223 4.30483 -0.0858563 3.67182 0.304355 3.28134L3.22535 0.358352C3.24195 0.339009 3.25941 0.320151 3.27772 0.301829C3.3244 0.255123 3.37457 0.213992 3.42737 0.178437C3.58913 0.0659449 3.78569 0 3.99765 0C4.33554 0 4.63428 0.16758 4.81531 0.42416L7.71947 3.3303C8.10983 3.72092 8.10907 4.35491 7.71867 4.7455C7.32821 5.13614 6.6944 5.13684 6.30398 4.74615L4.99765 3.43894V10C4.99765 10.5523 4.54993 11 3.99765 11C3.44536 11 2.99765 10.5523 2.99765 10V3.41452ZM13.0141 14.5855L14.2939 13.3048C14.6841 12.9143 15.317 12.9142 15.7073 13.3047C16.0975 13.6952 16.0976 14.3282 15.7074 14.7187L12.7864 17.6416C12.7698 17.661 12.7523 17.6798 12.734 17.6982C12.6873 17.7449 12.6372 17.786 12.5843 17.8216C12.4226 17.9341 12.226 18 12.0141 18C11.6762 18 11.3774 17.8324 11.1964 17.5758L8.29225 14.6697C7.90188 14.2791 7.90265 13.6451 8.29305 13.2545C8.68351 12.8639 9.31732 12.8632 9.70774 13.2538L11.0141 14.5611L11.0141 8C11.0141 7.44772 11.4618 7 12.0141 7C12.5664 7 13.0141 7.44772 13.0141 8L13.0141 14.5855Z" fill="#6B6B6B"/>
</svg>
