<svg width="14" height="12" viewBox="0 0 14 12" fill="none" xmlns="http://www.w3.org/2000/svg">
<path d="M0.293024 6.87611C-0.0957161 6.49661 -0.0976703 5.88248 0.287192 5.50063L0.295009 5.49291L5.62915 0.285644C6.01988 -0.0958026 6.6543 -0.0949233 7.04506 0.286531C7.43581 0.667979 7.4367 1.28732 7.04597 1.66877L3.41583 5.21255L12.9994 5.21254C13.552 5.21254 14 5.64986 14 6.18932C14 6.72877 13.552 7.16609 12.9994 7.16609L3.4198 7.16609L6.66359 10.3327C7.05428 10.7141 7.05428 11.3325 6.66359 11.7139C6.27286 12.0954 5.63941 12.0954 5.24872 11.7139L0.293024 6.87611Z" fill="#44F1A6"/>
</svg>
