<svg width="48" height="48" viewBox="0 0 48 48" fill="none" xmlns="http://www.w3.org/2000/svg">
<path d="M17.1159 18.8783C16.9822 19.324 16.9302 20.3391 17.5618 21.3316C17.7121 21.5678 17.9314 21.8636 18.1715 22.1873C18.2225 22.2562 18.2746 22.3264 18.3271 22.3975C18.6337 22.8128 18.9743 23.284 19.2985 23.7968C19.9529 24.8321 20.5078 25.9874 20.5955 27.128L21.5926 27.0513C21.4859 25.6646 20.8257 24.3413 20.1437 23.2625C19.7996 22.7182 19.4416 22.2235 19.1316 21.8036C19.0741 21.7256 19.0187 21.6509 18.9657 21.5794C18.7263 21.2564 18.5347 20.9979 18.4055 20.7948C17.9484 20.0766 18.013 19.368 18.0737 19.1657L17.1159 18.8783Z" fill="#44F1A6"/>
<path fill-rule="evenodd" clip-rule="evenodd" d="M11.6384 21.5344C12.1517 21.3523 12.756 21.5119 13.4368 22.0886C14.1134 22.662 14.7784 23.5829 15.3382 24.6907C15.8953 25.7932 16.3326 27.0498 16.5711 28.2671C16.8107 29.4904 16.8428 30.6387 16.6231 31.5396C16.1426 33.5093 15.442 34.1178 14.8516 34.1868C14.532 34.2241 14.1371 34.1274 13.6633 33.8409C13.5432 33.7683 13.4204 33.6849 13.2952 33.5909C13.6202 33.646 13.9414 33.6064 14.222 33.466C14.2521 33.451 14.2913 33.435 14.3376 33.4161C14.5856 33.3148 15.0361 33.1309 15.3626 32.5748C15.7223 31.9623 15.951 30.9176 15.9998 29.0128C16.0528 26.9466 15.0379 25.3001 14.1709 24.4145C13.9521 24.1909 13.7341 24.0069 13.5339 23.8728C13.3538 23.7522 13.1232 23.6271 12.8912 23.6091C12.7668 23.5994 12.5604 23.616 12.3924 23.7799C12.223 23.9453 12.2012 24.1544 12.2098 24.2861C12.2257 24.5275 12.356 24.7856 12.5065 25.0238C13.0233 25.8422 13.3527 27.3034 13.4449 28.6062C13.4904 29.2498 13.4749 29.8139 13.4098 30.2014L13.4081 30.2113C13.3933 30.1832 13.3779 30.1538 13.362 30.1229L13.3275 30.0558C13.2811 29.9655 13.2297 29.8654 13.1775 29.7715C13.1115 29.6529 13.033 29.5234 12.9403 29.4075C12.8495 29.2939 12.7236 29.1657 12.5538 29.0816C12.3689 28.9901 12.1552 28.9631 11.935 29.0268C11.7311 29.0859 11.5575 29.2122 11.4093 29.3605C11.291 29.4787 11.2368 29.6306 11.2087 29.7409C11.1766 29.8669 11.1598 30.0149 11.1583 30.1835C11.1554 30.5211 11.2137 30.9807 11.3769 31.5925C11.4929 32.0277 11.6788 32.3973 11.9072 32.6967L11.3883 33.1557C11.9672 33.8101 12.558 34.3412 13.1459 34.6966C13.7321 35.0511 14.3518 35.252 14.9677 35.18C16.2485 35.0303 17.103 33.7919 17.5946 31.7765C17.8609 30.6847 17.8079 29.3788 17.5524 28.0748C17.2958 26.7649 16.8279 25.4215 16.2307 24.2397C15.6363 23.0634 14.8979 22.016 14.0832 21.3257C13.2725 20.6388 12.2973 20.2395 11.304 20.592C9.80093 21.1253 9.27701 22.6984 9.14582 24.1705C9.01131 25.68 9.26049 27.3234 9.52859 28.3791L10.4978 28.1329C10.2475 27.1474 10.0204 25.6221 10.1419 24.2593C10.2666 22.8592 10.7309 21.8564 11.6384 21.5344ZM13.2966 30.5866L13.298 30.5847C13.2971 30.5861 13.2966 30.5867 13.2966 30.5866ZM14.4424 28.5357C14.3759 27.5958 14.19 26.5104 13.8662 25.5903C14.4737 26.3881 15.0363 27.5789 15.0002 28.9872C14.9518 30.8732 14.7213 31.6922 14.5003 32.0684C14.3555 32.315 14.2405 32.3645 14.0267 32.4564C13.9553 32.4871 13.873 32.5225 13.7748 32.5716C13.5725 32.6728 12.6811 32.6021 12.3431 31.3348C12.1952 30.7802 12.1564 30.4136 12.1583 30.1922C12.1589 30.1272 12.1629 30.078 12.1677 30.0427C12.2075 30.0945 12.2521 30.1651 12.3036 30.2577C12.3469 30.3355 12.3883 30.416 12.4336 30.5043L12.4735 30.5818C12.532 30.6952 12.5986 30.8213 12.6713 30.9368C12.742 31.0493 12.8349 31.1788 12.9554 31.284C13.0798 31.3926 13.2633 31.5 13.5 31.5C13.8728 31.5 14.0867 31.2291 14.1861 31.0459C14.2917 30.8512 14.3553 30.6095 14.396 30.367C14.479 29.8725 14.4909 29.2221 14.4424 28.5357ZM12.1804 29.9784C12.1821 29.9742 12.1829 29.9719 12.1828 29.9717C12.1827 29.9716 12.1824 29.9724 12.1817 29.9742C12.1814 29.9753 12.1809 29.9767 12.1804 29.9784Z" fill="#44F1A6"/>
<path fill-rule="evenodd" clip-rule="evenodd" d="M48 24C48 37.2548 37.2548 48 24 48C10.7452 48 0 37.2548 0 24C0 10.7452 10.7452 0 24 0C37.2548 0 48 10.7452 48 24ZM24.1587 46.9995C24.1058 46.9998 24.0529 47 24 47C19.3436 47 15.0105 45.6163 11.3892 43.2377C12.3749 42.1529 13.2014 41.5602 14.0951 41.1502C15.0145 41.8637 16.2247 42.5928 17.6442 43.023C20.2601 43.8157 23.2116 44.1438 24.3703 44.21L24.4274 43.2117C23.3181 43.1483 20.4505 42.8284 17.9342 42.0659C16.5447 41.6449 15.3605 40.8979 14.4876 40.1845C14.0604 39.8354 13.714 39.4995 13.4593 39.2217C13.5996 39.1239 13.7344 39.0367 13.8628 38.9598C14.122 39.1426 14.5601 39.4492 15.2681 39.9417C15.9078 40.3867 16.9717 40.7524 18.1506 41.0559C20.5346 41.6697 23.6777 42.0975 25.7111 42.3053C25.6588 42.5306 25.6086 42.7689 25.5579 43.0114L25.5399 43.0973C25.446 43.5471 25.3472 44.0201 25.2244 44.4965C24.9826 45.4348 24.6613 46.3273 24.1587 46.9995ZM25.3677 46.96C30.6217 46.6519 35.4017 44.5801 39.1244 41.3282C38.3925 40.9857 37.6185 40.71 36.8639 40.4937C36.0673 41.1531 34.7991 42.0519 33.3246 42.8207C31.7216 43.6565 29.8277 44.3637 28.0066 44.4051L27.9839 43.4054C29.5843 43.369 31.3191 42.7386 32.8622 41.934C33.9446 41.3696 34.9093 40.7319 35.6359 40.1873C35.0069 40.0529 34.4272 39.9633 33.9423 39.9117C32.6506 40.6744 31.2254 41.2156 29.6621 41.5738C28.1338 41.9241 27.2412 42.1334 26.7537 42.2516C26.6818 42.5282 26.6129 42.8516 26.5367 43.2161L26.5179 43.3062C26.4248 43.7521 26.3216 44.2464 26.1928 44.746C26.0035 45.4807 25.7511 46.2612 25.3677 46.96ZM39.9175 40.6023C40.2134 40.3185 40.5018 40.0269 40.7822 39.7277C38.9555 39.352 36.8029 39.045 35.4366 38.8813C35.3524 38.9486 35.2675 39.0148 35.1818 39.0798C35.7092 39.1732 36.2824 39.2981 36.8741 39.4584C37.8705 39.7285 38.9309 40.1021 39.9175 40.6023ZM41.5482 38.8689C39.9161 38.5059 37.9292 38.198 36.4315 37.9992C36.551 37.8821 36.6688 37.7622 36.785 37.6394C37.8286 36.5373 38.7409 35.21 39.5345 33.6323C39.7728 33.1586 40.0005 32.6622 40.2178 32.1425C42.277 27.2184 42.336 19.4255 38.2159 13.6763C37.739 13.0109 37.2061 12.3729 36.6139 11.7703C33.2833 8.38129 29.195 6.73138 24.9415 6.52561C24.6691 6.49923 24.4492 6.49493 24.2878 6.50533C21.474 6.46653 18.6072 7.04836 15.8528 8.15778C12.1995 9.62924 9.85827 12.5178 8.43637 15.8106C7.01686 19.0979 6.5 22.8147 6.5 26.0204C6.5 28.6886 7.7091 31.3705 9.16923 33.608C10.437 35.5507 11.9229 37.2024 13.0655 38.2805C12.8588 38.417 12.6446 38.572 12.4249 38.7454C12.2636 38.8728 12.0127 39.034 11.6888 39.2333C11.5991 39.2885 11.5045 39.3462 11.4063 39.4061C11.1611 39.5558 10.8933 39.7191 10.6275 39.8888C10.0028 40.2873 9.31449 40.7649 8.83071 41.2889C4.03018 37.0736 1 30.8907 1 24C1 11.2975 11.2975 1 24 1C36.7025 1 47 11.2975 47 24C47 29.6692 44.9488 34.8594 41.5482 38.8689ZM9.59705 41.933C9.91091 42.1854 10.2315 42.4297 10.5586 42.6657C11.5142 41.5966 12.3607 40.9235 13.266 40.4446C13.025 40.2193 12.817 40.005 12.6452 39.8124C12.5099 39.901 12.3633 39.9924 12.2129 40.085C12.117 40.144 12.0187 40.2039 11.9185 40.2651L11.9176 40.2657C11.6755 40.4134 11.4223 40.5679 11.1653 40.7318C10.546 41.127 9.97421 41.5351 9.59705 41.933ZM38.2057 34C37.5731 35.1204 36.8749 36.0806 36.1082 36.8995C35.8702 37.0327 35.3659 37.2699 34.6672 37.4982C34.3802 37.1882 33.9798 36.8005 33.5175 36.4308C32.9245 35.9565 32.1927 35.4818 31.4411 35.2608C30.6938 35.0409 30.1149 34.7362 29.6278 33.9174C29.1136 33.0531 28.6848 31.5868 28.395 28.9784C28.1449 26.7278 27.0865 25.3818 25.8236 24.6484C24.7248 24.0103 23.5078 23.856 22.6112 23.9145C22.3644 23.5471 22.1135 23.2204 21.8743 22.9091C20.9754 21.7388 20.2424 20.7845 20.5204 18.6993C20.5808 18.2468 20.9265 17.7766 21.6552 17.3083C22.375 16.8458 23.387 16.4398 24.6002 16.0915C26.951 15.4166 29.9464 14.989 32.7427 14.7417C33.8425 16.0201 35.3726 18.154 36.5618 20.6098C37.8163 23.2002 38.6589 26.0817 38.2895 28.6714C38.0933 30.0465 37.9861 31.0823 37.9436 31.8521C37.9017 32.6115 37.9204 33.1457 37.9945 33.4991C38.0297 33.6673 38.0885 33.8525 38.2057 34ZM32.8929 37.2117C33.14 37.4094 33.3672 37.6125 33.564 37.8019C33.4596 37.8254 33.353 37.848 33.2444 37.8694C32.3505 38.046 29.9832 38.0549 27.6505 37.7908C26.4932 37.6598 25.3734 37.4646 24.4746 37.2003C24.0251 37.0681 23.6436 36.9223 23.345 36.7656C23.0407 36.6058 22.8569 36.4526 22.763 36.3225C22.54 36.0138 22.4608 35.6361 22.5022 35.1197C22.5446 34.5895 22.7087 33.9717 22.9236 33.2164L22.9909 32.9806C23.4048 31.534 23.9252 29.715 23.8291 27.5534C23.7812 26.4747 23.5328 25.626 23.188 24.908C23.8439 24.9379 24.6186 25.105 25.3214 25.5132C26.299 26.0809 27.1846 27.1404 27.4011 29.0888C27.6945 31.7292 28.1405 33.3734 28.7684 34.4287C29.4234 35.5296 30.2539 35.9539 31.159 36.2201C31.7294 36.3879 32.3421 36.7713 32.8929 37.2117ZM37.4619 20.1739C36.3885 17.9576 35.0497 15.9966 33.9615 14.644C34.526 14.6034 35.0754 14.5701 35.602 14.5437C36.2989 14.5087 36.9554 14.4855 37.5535 14.4726C41.2863 19.8731 41.2188 27.1568 39.2952 31.7567C39.1738 32.047 39.0494 32.329 38.9218 32.603C38.9211 32.4101 38.9271 32.18 38.9421 31.9072C38.9825 31.1766 39.0856 30.1717 39.2795 28.8126C39.6901 25.9341 38.7511 22.8363 37.4619 20.1739ZM35.9007 12.4712C36.2244 12.8007 36.5294 13.1415 36.8161 13.4923C36.4927 13.5029 36.1566 13.5162 35.8099 13.5324C35.4257 13.0522 34.8951 12.4342 34.2736 11.7772C33.4886 10.9473 32.5398 10.0348 31.5441 9.25799C33.0962 10.0455 34.5621 11.1092 35.9007 12.4712ZM33.7039 12.6313C34.0237 12.9745 34.3149 13.303 34.5687 13.6007C34.0306 13.6347 33.4754 13.6754 32.9101 13.7234C30.0182 13.9692 26.8378 14.4087 24.3243 15.1303C23.07 15.4904 21.9522 15.9288 21.1146 16.467C20.2859 16.9995 19.6467 17.6862 19.5292 18.5671C19.1916 21.099 20.2297 22.4399 21.1833 23.6716C21.4512 24.0177 21.7124 24.3551 21.9345 24.7078C22.4041 25.4534 22.7738 26.3297 22.8301 27.5978C22.9188 29.5925 22.4391 31.2715 22.023 32.7283L21.9618 32.9427C21.7514 33.682 21.5571 34.3946 21.5054 35.0399C21.4526 35.6989 21.5434 36.3419 21.9523 36.908C22.1743 37.2153 22.5099 37.4566 22.8803 37.651C23.2564 37.8484 23.7049 38.0163 24.1925 38.1596C25.1678 38.4465 26.3504 38.65 27.5381 38.7845C29.8953 39.0514 32.3881 39.0579 33.4381 38.8505C33.6048 38.8176 33.767 38.7822 33.9243 38.7449C33.8067 38.8223 33.6878 38.8975 33.5675 38.9706C32.3421 39.7157 30.9717 40.2478 29.4388 40.5991C27.5733 41.0266 26.6448 41.2464 26.2427 41.3476L26.228 41.3513C24.2696 41.1665 20.9427 40.7344 18.4671 40.1047C17.9069 39.7645 16.5078 38.572 15.4176 36.3916L14.5232 36.8388C15.0209 37.8342 15.5837 38.6496 16.1232 39.2923C16.0164 39.2352 15.9215 39.1781 15.8392 39.1208C14.9448 38.4986 14.4852 38.1761 14.2739 38.0256L14.2686 38.0218L14.2301 37.9882C13.1109 37.0109 11.4169 35.2226 10.0067 33.0615C8.5913 30.8926 7.5 28.4066 7.5 26.0204C7.5 22.9081 8.00374 19.3349 9.35444 16.207C10.2216 14.1989 11.4321 12.3854 13.0756 10.9883C11.6299 12.9875 10.3835 15.7877 10.6817 19.0673L11.6776 18.9767C11.2376 14.1375 14.5289 10.3728 16.2853 9.06174C18.9188 8.00915 21.6405 7.46597 24.2942 7.50552C24.4872 7.5084 24.68 7.51436 24.8723 7.52343C25.654 7.60328 27.0859 7.90915 28.9494 8.7827C30.2128 9.37492 31.5979 10.5225 32.7905 11.6931C31.4026 11.8015 28.9208 12.0402 26.3917 12.4661C24.5409 12.7777 22.6396 13.1936 21.1119 13.7414C20.3485 14.0152 19.6598 14.3283 19.1122 14.6894C18.5713 15.0462 18.1192 15.4818 17.9072 16.0199L18.8376 16.3865C18.9415 16.1227 19.2002 15.8293 19.6628 15.5242C20.1187 15.2236 20.7261 14.9421 21.4494 14.6828C22.895 14.1644 24.7289 13.7602 26.5578 13.4522C28.3823 13.1449 30.1819 12.9367 31.55 12.8053C32.2336 12.7396 32.8083 12.6933 33.223 12.6633C33.4227 12.6489 33.5849 12.6384 33.7039 12.6313Z" fill="#44F1A6"/>
</svg>
