<svg width="18" height="16" viewBox="0 0 18 16" fill="none" xmlns="http://www.w3.org/2000/svg">
<path d="M13.5032 9.81773C13.9433 9.05868 14.6535 9.05868 15.0936 9.81773L17.8343 14.6217C18.2744 15.3808 17.9143 16 17.0341 16H11.5127C10.6425 16 10.2824 15.3808 10.7125 14.6217L13.5032 9.81773ZM8.20189 0.569288C8.642 -0.189763 9.34217 -0.189763 9.78228 0.569288L10.3924 1.66792L11.8328 4.19476C12.1829 4.91386 12.1829 5.7628 11.8328 6.4819L7.0016 14.8414C6.56149 15.5206 5.83131 15.9501 5.02111 16H1.01013C0.12991 16 -0.230178 15.3908 0.20993 14.6217L8.20189 0.569288Z" fill="#4FB2F9"/>
</svg>
