<svg width="18" height="18" viewBox="0 0 18 18" fill="none" xmlns="http://www.w3.org/2000/svg">
<path d="M5.50426 7.56374L9 4.068L12.4974 7.56526L14.5314 5.53126L9 0L3.4704 5.5296L5.50433 7.5636L5.50426 7.56374ZM0 9L2.03407 6.96564L4.068 8.99957L2.03393 11.0336L0 9ZM5.50426 10.4365L9 13.932L12.4973 10.4348L14.5324 12.4677L14.5314 12.4688L9 18L3.4704 12.4704L3.46752 12.4675L5.50447 10.4363L5.50426 10.4365ZM13.932 9.00086L15.9661 6.96679L18 9.00072L15.966 11.0348L13.932 9.00086Z" fill="#44F1A6"/>
<path d="M11.0629 8.99895H11.0638L9 6.935L7.47454 8.46003L7.29929 8.63535L6.93785 8.99686L6.93497 8.99967L6.93785 9.00262L9 11.0651L11.064 9.00111L11.065 8.99996L11.0631 8.99895" fill="#44F1A6"/>
</svg>
