<svg xmlns="http://www.w3.org/2000/svg" fill="none" viewBox="0 0 18 19">
  <path fill="#44F1A6" d="M4.908 14.417a4.556 4.556 0 01-1.879-.4 4.878 4.878 0 01-1.558-1.11A5.5 5.5 0 01.4 11.243 5.27 5.27 0 010 9.182c0-.73.133-1.415.4-2.054a5.475 5.475 0 011.07-1.67 4.88 4.88 0 011.56-1.112 4.557 4.557 0 011.878-.4c.564 0 1.092.096 1.582.288.496.187.93.44 1.303.76.378.314.698.679.96 1.095.266.415.457.847.575 1.294H7.689a3.37 3.37 0 00-.368-.767 2.486 2.486 0 00-.591-.655 2.891 2.891 0 00-.807-.448 2.799 2.799 0 00-1.015-.176c-.427 0-.842.096-1.247.288-.4.186-.757.453-1.071.8-.31.34-.56.745-.752 1.214a4.036 4.036 0 00-.287 1.543c0 .554.096 1.066.287 1.534.192.47.443.877.752 1.223.314.341.671.608 1.07.8.406.191.821.287 1.248.287a3.05 3.05 0 001.119-.2 3.03 3.03 0 001.559-1.35c.17-.31.287-.637.351-.983h-3.11V9.014h4.58v5.323H8.266l-.408-.983a3.352 3.352 0 01-.775.544c-.25.133-.56.253-.927.36-.363.106-.778.16-1.247.16zM16.53 10.652a2.52 2.52 0 00-.177-.959 2.757 2.757 0 00-.447-.751 1.885 1.885 0 00-.656-.488 1.792 1.792 0 00-.767-.175c-.261 0-.517.058-.767.175-.25.118-.47.28-.656.488a2.511 2.511 0 00-.447.751 2.52 2.52 0 00-.176.96c0 .351.059.67.176.959.117.287.266.538.447.751.187.213.405.378.656.496.25.117.506.173.767.167a1.863 1.863 0 001.423-.663c.186-.213.336-.464.447-.751.118-.288.176-.608.176-.96zm1.47 0a4.27 4.27 0 01-.264 1.527 3.497 3.497 0 01-.76 1.183c-.319.33-.692.589-1.118.775-.426.187-.885.28-1.375.28s-.948-.093-1.375-.28a3.487 3.487 0 01-1.119-.775 3.669 3.669 0 01-.759-1.183 4.012 4.012 0 01-.264-1.527c0-.554.088-1.06.264-1.518.181-.458.434-.855.76-1.191.32-.33.692-.589 1.118-.775.427-.187.885-.28 1.375-.28s.949.093 1.375.28c.426.186.8.445 1.119.775.32.33.573.727.76 1.19.175.46.263.965.263 1.52zM12.179 4.017H14v1.821h-1.821zM14.963 4.017h1.821v1.821h-1.821z"/>
</svg>
