<svg width="12" height="14" viewBox="0 0 12 14" fill="none" xmlns="http://www.w3.org/2000/svg">
<path fill-rule="evenodd" clip-rule="evenodd" d="M6 0C3.79086 0 2 1.79083 2 4V5H1C0.447716 5 0 5.44769 0 6V13C0 13.5523 0.447716 14 1 14H11C11.5523 14 12 13.5523 12 13V6C12 5.44769 11.5523 5 11 5H10V4C10 1.79083 8.20914 0 6 0ZM8 4V5H4V4C4 2.89545 4.89543 2 6 2C7.10457 2 8 2.89545 8 4ZM2 7V12H10V7H2ZM6 8C5.44772 8 5 8.44769 5 9V10C5 10.5523 5.44772 11 6 11C6.55228 11 7 10.5523 7 10V9C7 8.44769 6.55228 8 6 8Z" fill="#000"/>
</svg>
