<svg xmlns="http://www.w3.org/2000/svg" viewBox="0 0 30 30"><path d="M 3 4 A 1.0001 1.0001 0 0 0 2 5 L 2 7.2773438 C 1.4043659 7.6236132 1 8.2610536 1 9 L 1 23.044922 C 1 24.117922 1.8547813 24.994109 2.9257812 25.037109 C 7.7407464 25.233172 11.209143 26.128587 13.162109 26.783203 A 2 2 0 0 0 15 28 A 2 2 0 0 0 16.839844 26.783203 C 18.793103 26.128724 22.26054 25.234454 27.074219 25.039062 C 28.145219 24.995062 29 24.117922 29 23.044922 L 29 9 C 29 8.2610536 28.595634 7.6236132 28 7.2773438 L 28 5 A 1.0001 1.0001 0 0 0 27 4 C 22.425926 4 19.338409 4.5075438 17.367188 5.0332031 C 15.770049 5.4591067 15.294423 5.7861668 15 5.953125 C 14.705577 5.7861668 14.229952 5.4591067 12.632812 5.0332031 C 10.661591 4.5075438 7.5740741 4 3 4 z M 4 6.0546875 C 7.7819889 6.1315605 10.498635 6.5351831 12.117188 6.9667969 C 13.09718 7.2281282 13.652619 7.4442547 14 7.6035156 L 14 23.572266 C 12.437694 23.042425 9.1449601 22.183307 4 22.060547 L 4 6.0546875 z M 26 6.0546875 L 26 22.060547 C 20.85504 22.183307 17.562306 23.042425 16 23.572266 L 16 7.6035156 C 16.347381 7.4442547 16.90282 7.2281282 17.882812 6.9667969 C 19.501364 6.5351831 22.218011 6.1315602 26 6.0546875 z"></path></svg>
