<svg xmlns="http://www.w3.org/2000/svg"
	 viewBox="0 0 30 30">
<path fill-rule="evenodd" clip-rule="evenodd" d="M2.5,21.2c1,0.8,2.4,1.1,4,1.1c2,0,3.5-0.5,4.7-1.4c1.2-0.9,2-2.3,2.5-4.2
	c0.3-1.1,0.5-2.3,0.7-3.5c0.1-0.4,0.1-0.8,0.1-1.1c0-1-0.2-1.8-0.7-2.5c-0.5-0.7-1.1-1.2-2-1.6C11,7.8,10.1,7.6,9,7.6
	c-3.9,0-6.3,1.9-7.2,5.6c-0.3,1.4-0.6,2.6-0.8,3.5C1,17.2,1,17.6,1,17.9C1,19.3,1.5,20.5,2.5,21.2z M8.7,18.8
	c-0.5,0.5-1.2,0.7-1.9,0.7c-1.3,0-2-0.6-2-1.9c0-0.3,0-0.6,0.1-0.9c0.2-1.3,0.5-2.4,0.7-3.4c0.2-0.9,0.6-1.6,1.1-2.1
	c0.5-0.5,1.2-0.7,2-0.7c1.3,0,1.9,0.6,1.9,1.9c0,0.3,0,0.6-0.1,0.9c-0.2,1-0.4,2.1-0.7,3.4C9.7,17.6,9.3,18.3,8.7,18.8z M15.1,22
	c0.1,0.1,0.2,0.1,0.3,0.1h2.8c0.1,0,0.3,0,0.4-0.1c0.1-0.1,0.2-0.2,0.2-0.4l0.9-4.5h2.8c1.8,0,3.2-0.4,4.2-1.1
	c1-0.8,1.7-1.9,2.1-3.5c0.1-0.4,0.1-0.7,0.1-1.1c0-1.2-0.5-2.1-1.4-2.7c-0.9-0.6-2.1-0.9-3.7-0.9h-5.5c-0.1,0-0.3,0-0.4,0.1
	c-0.1,0.1-0.2,0.2-0.2,0.4l-2.8,13.3C15.1,21.8,15.1,21.9,15.1,22z M24.3,13.9c-0.4,0.3-0.9,0.5-1.5,0.5h-2.4l0.8-3.7h2.5
	c0.6,0,1,0.1,1.2,0.3c0.2,0.2,0.3,0.5,0.3,0.9c0,0.2,0,0.4-0.1,0.6C25,13.1,24.7,13.6,24.3,13.9z"/>
</svg>
