<svg xmlns="http://www.w3.org/2000/svg" xmlns:xlink="http://www.w3.org/1999/xlink" viewBox="0 0 121.2 104.1"><defs><clipPath id="a" transform="translate(-3.7 -10)"><rect x="1.7" width="125" height="125" fill="none"/></clipPath></defs><g clip-path="url(#a)"><path d="M95.1,41.8a7.9,7.9,0,0,0-7.6,0L70.1,51.9,58.2,58.5,40.8,68.6a7.9,7.9,0,0,1-7.6,0L19.3,60.7a7.6,7.6,0,0,1-3.8-6.4V38.7a7.2,7.2,0,0,1,3.8-6.4L33,24.6a7.9,7.9,0,0,1,7.6,0l13.6,7.7A7.7,7.7,0,0,1,58,38.7V48.8L69.9,42V31.9a7.4,7.4,0,0,0-3.8-6.4L40.8,11a7.9,7.9,0,0,0-7.6,0L7.5,25.5a7,7,0,0,0-3.8,6.4V61.1a6.9,6.9,0,0,0,3.8,6.4L33.2,82a7.4,7.4,0,0,0,7.6,0l17.4-9.9,11.9-6.8,17.4-9.9a7.9,7.9,0,0,1,7.6,0l13.7,7.7a7.7,7.7,0,0,1,3.8,6.4V85.1a7.2,7.2,0,0,1-3.8,6.4L95.1,99.4a7.9,7.9,0,0,1-7.6,0L73.9,91.7a7.6,7.6,0,0,1-3.8-6.4V75.2L58.2,82V92.2A7.2,7.2,0,0,0,62,98.5l25.8,14.6a7.9,7.9,0,0,0,7.6,0l25.7-14.6a7.5,7.5,0,0,0,3.8-6.3V62.9a7.4,7.4,0,0,0-3.8-6.4Z" transform="translate(-3.7 -10)" fill="#8247e5"/></g></svg>