<svg width="48" height="48" viewBox="0 0 48 48" fill="none" xmlns="http://www.w3.org/2000/svg">
<path fill-rule="evenodd" clip-rule="evenodd" d="M15.0377 15.0014C15.2347 15.0163 15.4044 15.1458 15.4709 15.3318L17.9709 22.3318C18.0414 22.5293 17.9812 22.7499 17.8201 22.8841L14.8201 25.3841C14.6214 25.5497 14.3293 25.5364 14.1464 25.3536L11.1464 22.3536C10.9903 22.1974 10.9551 21.9574 11.0598 21.763L14.5598 15.2629C14.6534 15.089 14.8407 14.9865 15.0377 15.0014ZM12.1166 21.9095L14.5307 24.3236L16.9117 22.3394L14.9072 16.7269L12.1166 21.9095Z" fill="#44F1A6"/>
<path fill-rule="evenodd" clip-rule="evenodd" d="M10.7132 23.5905C10.9119 23.4512 11.182 23.4748 11.3536 23.6464L14.5469 26.8398L18.2 24.1C18.3897 23.9577 18.6532 23.9683 18.8309 24.1252C19.0086 24.2821 19.0518 24.5422 18.9341 24.7481L14.9341 31.7481C14.8414 31.9103 14.666 32.0073 14.4794 31.9996C14.2927 31.9919 14.1259 31.8807 14.0469 31.7114L10.5469 24.2114C10.4443 23.9915 10.5144 23.7297 10.7132 23.5905ZM12.6533 26.3604L14.5448 30.4137L16.8672 26.3496L14.8 27.9C14.6009 28.0493 14.3224 28.0295 14.1464 27.8536L12.6533 26.3604Z" fill="#44F1A6"/>
<path fill-rule="evenodd" clip-rule="evenodd" d="M16.1878 9.60361C15.7996 9.53533 15.4033 9.5 15 9.5C12.3043 9.5 9.91707 11.0788 8.22494 13.523C6.53146 15.9692 5.5 19.3213 5.5 23C5.5 26.6787 6.53146 30.0308 8.22494 32.477C9.91707 34.9212 12.3043 36.5 15 36.5C15.4033 36.5 15.7996 36.4647 16.1878 36.3964C16.563 36.4648 16.9454 36.5 17.3333 36.5C18.2058 36.5 19.0439 36.3228 19.8339 35.9958C20.6252 36.323 21.4637 36.5 22.3333 36.5C22.7067 36.5 23.0739 36.4675 23.4336 36.4048L23.4292 36.4356C23.7267 36.4782 24.0284 36.5 24.3333 36.5C25.2058 36.5 26.0439 36.3228 26.8339 35.9959C27.6259 36.3233 28.4647 36.5 29.3333 36.5C29.7067 36.5 30.0739 36.4675 30.4336 36.4048L30.4292 36.4356C30.7267 36.4782 31.0284 36.5 31.3333 36.5C33.9458 36.5 36.2497 34.9117 37.8776 32.4697C39.5079 30.0243 40.5 26.6748 40.5 23C40.5 19.3252 39.5079 15.9757 37.8776 13.5303C36.2497 11.0883 33.9458 9.5 31.3333 9.5C31.0638 9.5 30.7968 9.51702 30.533 9.55038L30.5411 9.61491C30.1471 9.53926 29.744 9.5 29.3333 9.5C28.465 9.5 27.6262 9.67658 26.8339 10.0041C26.0439 9.67717 25.2058 9.5 24.3333 9.5C24.0284 9.5 23.7267 9.52178 23.4292 9.56436L23.4336 9.59521C23.0739 9.53245 22.7067 9.5 22.3333 9.5C21.4646 9.5 20.6259 9.6767 19.8339 10.0041C19.0439 9.67717 18.2058 9.5 17.3333 9.5C16.9454 9.5 16.563 9.53525 16.1878 9.60361ZM9.04714 14.0922C7.48326 16.3511 6.5 19.499 6.5 23C6.5 26.501 7.48326 29.6489 9.04714 31.9078C10.6124 34.1687 12.7252 35.5 15 35.5C15.3732 35.5 15.7421 35.4642 16.1049 35.3943L16.1128 35.36C16.1385 35.3659 16.1641 35.3717 16.1898 35.3773C18.0052 34.9999 19.6645 33.7687 20.9529 31.9078C22.5167 29.6489 23.5 26.501 23.5 23C23.5 19.499 22.5167 16.3511 20.9529 14.0922C19.6645 12.2313 18.0052 11.0001 16.1898 10.6227C16.1641 10.6283 16.1385 10.6341 16.1128 10.64L16.1049 10.6057C15.7421 10.5358 15.3732 10.5 15 10.5C12.7252 10.5 10.6124 11.8313 9.04714 14.0922ZM29.3333 35.5C28.9002 35.5 28.4743 35.4479 28.0579 35.347C29.13 34.6474 30.0841 33.66 30.8776 32.4697C32.5079 30.0243 33.5 26.6748 33.5 23C33.5 19.3252 32.5079 15.9757 30.8776 13.5303C30.0841 12.34 29.13 11.3526 28.0579 10.653C28.4742 10.5521 28.9001 10.5 29.3333 10.5C31.5074 10.5 33.5368 11.8218 35.0456 14.085C36.552 16.3446 37.5 19.4951 37.5 23C37.5 26.5049 36.552 29.6554 35.0456 31.915C33.5368 34.1782 31.5074 35.5 29.3333 35.5ZM37.0456 31.915C36.0432 33.4186 34.811 34.5067 33.4592 35.0677C34.369 34.3942 35.1846 33.5093 35.8776 32.4697C37.5079 30.0243 38.5 26.6748 38.5 23C38.5 19.3252 37.5079 15.9757 35.8776 13.5303C35.1846 12.4907 34.369 11.6058 33.4592 10.9323C34.811 11.4933 36.0432 12.5814 37.0456 14.085C38.552 16.3446 39.5 19.4951 39.5 23C39.5 26.5049 38.552 29.6554 37.0456 31.915ZM30.0456 31.915C29.0432 33.4186 27.811 34.5067 26.4593 35.0677C27.369 34.3942 28.1846 33.5093 28.8776 32.4697C30.5079 30.0243 31.5 26.6748 31.5 23C31.5 19.3252 30.5079 15.9757 28.8776 13.5303C28.1846 12.4907 27.369 11.6058 26.4593 10.9323C27.811 11.4933 29.0432 12.5814 30.0456 14.085C31.552 16.3446 32.5 19.4951 32.5 23C32.5 26.5049 31.552 29.6554 30.0456 31.915ZM19.0557 10.7817C20.0828 11.4692 21.0015 12.4057 21.7751 13.523C23.4685 15.9692 24.5 19.3213 24.5 23C24.5 26.6787 23.4685 30.0308 21.7751 32.477C21.1501 33.3798 20.4302 34.1645 19.6351 34.7952C19.7007 34.8306 19.7667 34.8648 19.833 34.8977C21.0381 34.3008 22.1364 33.2789 23.0456 31.915C24.552 29.6554 25.5 26.5049 25.5 23C25.5 19.4951 24.552 16.3446 23.0456 14.085C21.9443 12.433 20.5655 11.2826 19.0557 10.7817ZM21.0579 35.347C21.4746 35.448 21.9006 35.5 22.3333 35.5C24.5074 35.5 26.5368 34.1782 28.0456 31.915C29.552 29.6554 30.5 26.5049 30.5 23C30.5 19.4951 29.552 16.3446 28.0456 14.085C26.5368 11.8218 24.5074 10.5 22.3333 10.5C21.9002 10.5 21.4743 10.5521 21.0579 10.653C22.13 11.3526 23.0841 12.34 23.8776 13.5303C25.5079 15.9757 26.5 19.3252 26.5 23C26.5 26.6748 25.5079 30.0243 23.8776 32.4697C23.0841 33.66 22.13 34.6474 21.0579 35.347Z" fill="#44F1A6"/>
<path fill-rule="evenodd" clip-rule="evenodd" d="M8 0C3.58172 0 0 3.58172 0 8V40C0 44.4183 3.58172 48 8 48H40C44.4183 48 48 44.4183 48 40V8C48 3.58172 44.4183 0 40 0H8ZM40 1H8C4.13401 1 1 4.13401 1 8V40C1 43.866 4.13401 47 8 47H40C43.866 47 47 43.866 47 40V8C47 4.13401 43.866 1 40 1Z" fill="#44F1A6"/>
</svg>
