<svg width="48" height="48" viewBox="0 0 48 48" fill="none" xmlns="http://www.w3.org/2000/svg">
<path d="M11 8H14V13H16V14H11V13H13V9H11V8Z" fill="#44F1A6"/>
<path d="M39 24H9V25H39V24Z" fill="#44F1A6"/>
<path d="M28 8H25V9H27V13H25V14H30V13H28V8Z" fill="#44F1A6"/>
<path fill-rule="evenodd" clip-rule="evenodd" d="M37 14H32V8H37V14ZM36 9V13H33V9H36Z" fill="#44F1A6"/>
<path fill-rule="evenodd" clip-rule="evenodd" d="M16 22H11V16H16V22ZM15 17V21H12V17H15Z" fill="#44F1A6"/>
<path d="M21 16H18V17H20V21H18V22H23V21H21V16Z" fill="#44F1A6"/>
<path d="M28 16H25V17H27V21H25V22H30V21H28V16Z" fill="#44F1A6"/>
<path d="M35 16H32V17H34V21H32V22H37V21H35V16Z" fill="#44F1A6"/>
<path fill-rule="evenodd" clip-rule="evenodd" d="M23 14H18V8H23V14ZM22 9V13H19V9H22Z" fill="#44F1A6"/>
<path d="M10.0381 27H10.0589C10.491 30.67 13.2718 33.6213 16.8572 34.3096C14.5797 32.4947 12.9217 29.9354 12.2514 27H19.7085C20.1766 29.4925 22.3622 31.3793 24.9894 31.3846L25.0004 31.3846C27.6326 31.3846 29.8236 29.496 30.2924 27H38.0453C38.0665 27.3049 38.0773 27.6127 38.0773 27.9231C38.0773 35.1453 32.2226 41 25.0004 41C29.1249 41 32.5602 38.049 33.31 34.1432C30.9141 37.1499 27.2207 39.0769 23.0773 39.0769C16.1916 39.0769 10.5489 33.755 10.0381 27Z" fill="#44F1A6"/>
<path fill-rule="evenodd" clip-rule="evenodd" d="M8 0C3.58172 0 0 3.58172 0 8V40C0 44.4183 3.58172 48 8 48H40C44.4183 48 48 44.4183 48 40V8C48 3.58172 44.4183 0 40 0H8ZM40 1H8C4.13401 1 1 4.13401 1 8V40C1 43.866 4.13401 47 8 47H40C43.866 47 47 43.866 47 40V8C47 4.13401 43.866 1 40 1Z" fill="#44F1A6"/>
</svg>
