<svg width="48" height="48" viewBox="0 0 48 48" fill="none" xmlns="http://www.w3.org/2000/svg">
<path fill-rule="evenodd" clip-rule="evenodd" d="M33.7476 19.1465C35.0977 17.7963 35.0978 15.6027 33.7476 14.2524C32.3974 12.9022 30.2037 12.9022 28.8534 14.2524C27.5032 15.6027 27.5032 17.7963 28.8534 19.1466C30.2037 20.4968 32.3974 20.4968 33.7476 19.1465ZM29.5606 18.4394C30.5203 19.3992 32.0808 19.3992 33.0405 18.4394C34.0001 17.4797 34.0002 15.9192 33.0405 14.9595C32.0808 13.9998 30.5203 13.9998 29.5606 14.9595C28.6008 15.9192 28.6008 17.4797 29.5606 18.4394Z" fill="#44F1A6"/>
<path fill-rule="evenodd" clip-rule="evenodd" d="M21.1671 32.1936C21.3986 32.2248 21.6317 32.1471 21.8072 31.9918C21.9818 31.8356 22.0819 31.6128 22.0819 31.3789V29.8516H23.5816C23.7994 29.8516 24.0078 29.7651 24.1615 29.6112L26.2652 27.5354C29.4775 28.5768 32.9579 27.8049 35.3611 25.4001C38.8795 21.8818 38.8795 16.1571 35.3611 12.6388C31.8428 9.12038 26.1182 9.12043 22.5999 12.6388C20.1966 15.042 19.3619 18.5837 20.4025 21.7968L10.2404 31.959C10.0865 32.1128 10 32.3211 10 32.539V37.1797C10 37.6331 10.3669 38 10.8203 38H15.461C15.6789 38 15.8872 37.9135 16.0409 37.7597L17.2009 36.5989C17.3779 36.4218 17.4645 36.1735 17.4356 35.9243L17.2914 34.6778L19.0186 34.5152C19.4111 34.4783 19.7211 34.1683 19.758 33.7758L19.9206 32.0486L21.1671 32.1936ZM21.5424 22.0711L21.3538 21.4887C20.4282 18.6304 21.1713 15.4816 23.307 13.3459C26.4348 10.2181 31.5262 10.218 34.654 13.3459C37.7819 16.4737 37.7819 21.5652 34.654 24.693C32.5263 26.8221 29.4417 27.514 26.5736 26.5841L25.9954 26.3967L23.5076 28.8516H21.0819V31.177L19.0209 30.9372L18.7764 33.5336L16.1806 33.778L16.4323 35.9533L15.3863 37H11V32.6136L21.5424 22.0711Z" fill="#44F1A6"/>
<path fill-rule="evenodd" clip-rule="evenodd" d="M0 8C0 3.58172 3.58172 0 8 0H40C44.4183 0 48 3.58172 48 8V40C48 44.4183 44.4183 48 40 48H8C3.58172 48 0 44.4183 0 40V8ZM8 1H40C43.866 1 47 4.13401 47 8V40C47 43.866 43.866 47 40 47H8C4.13401 47 1 43.866 1 40V8C1 4.13401 4.13401 1 8 1Z" fill="#44F1A6"/>
</svg>
