<svg width="48" height="48" viewBox="0 0 48 48" fill="none" xmlns="http://www.w3.org/2000/svg">
<path d="M13 16C13 17.1046 12.1046 18 11 18C9.89543 18 9 17.1046 9 16C9 14.8954 9.89543 14 11 14C12.1046 14 13 14.8954 13 16Z" fill="#44F1A6"/>
<path d="M20 16C20 15.4477 20.4477 15 21 15H34C34.5523 15 35 15.4477 35 16C35 16.5523 34.5523 17 34 17H21C20.4477 17 20 16.5523 20 16Z" fill="#44F1A6"/>
<path d="M39 16C39 16.5523 38.5523 17 38 17C37.4477 17 37 16.5523 37 16C37 15.4477 37.4477 15 38 15C38.5523 15 39 15.4477 39 16Z" fill="#44F1A6"/>
<path fill-rule="evenodd" clip-rule="evenodd" d="M7 10C5.89543 10 5 10.8954 5 12V20C5 21.1046 5.89543 22 7 22H41C42.1046 22 43 21.1046 43 20V12C43 10.8954 42.1046 10 41 10H7ZM16 12C16 11.4477 15.5523 11 15 11H7C6.44772 11 6 11.4477 6 12V20C6 20.5523 6.44772 21 7 21H15C15.5523 21 16 20.5523 16 20V12ZM16.7324 21C16.9026 20.7058 17 20.3643 17 20V12C17 11.6357 16.9026 11.2942 16.7324 11H41C41.5523 11 42 11.4477 42 12V20C42 20.5523 41.5523 21 41 21H16.7324Z" fill="#44F1A6"/>
<path d="M11 34C12.1046 34 13 33.1046 13 32C13 30.8954 12.1046 30 11 30C9.89543 30 9 30.8954 9 32C9 33.1046 9.89543 34 11 34Z" fill="#44F1A6"/>
<path d="M20 32C20 31.4477 20.4477 31 21 31H34C34.5523 31 35 31.4477 35 32C35 32.5523 34.5523 33 34 33H21C20.4477 33 20 32.5523 20 32Z" fill="#44F1A6"/>
<path d="M39 32C39 32.5523 38.5523 33 38 33C37.4477 33 37 32.5523 37 32C37 31.4477 37.4477 31 38 31C38.5523 31 39 31.4477 39 32Z" fill="#44F1A6"/>
<path fill-rule="evenodd" clip-rule="evenodd" d="M7 26C5.89543 26 5 26.8954 5 28V36C5 37.1046 5.89543 38 7 38H41C42.1046 38 43 37.1046 43 36V28C43 26.8954 42.1046 26 41 26H7ZM16 28C16 27.4477 15.5523 27 15 27H7C6.44772 27 6 27.4477 6 28V36C6 36.5523 6.44772 37 7 37H15C15.5523 37 16 36.5523 16 36V28ZM16.7324 37C16.9026 36.7058 17 36.3643 17 36V28C17 27.6357 16.9026 27.2942 16.7324 27H41C41.5523 27 42 27.4477 42 28V36C42 36.5523 41.5523 37 41 37H16.7324Z" fill="#44F1A6"/>
<path fill-rule="evenodd" clip-rule="evenodd" d="M0 8C0 3.58172 3.58172 0 8 0H40C44.4183 0 48 3.58172 48 8V40C48 44.4183 44.4183 48 40 48H8C3.58172 48 0 44.4183 0 40V8ZM8 1H40C43.866 1 47 4.13401 47 8V40C47 43.866 43.866 47 40 47H8C4.13401 47 1 43.866 1 40V8C1 4.13401 4.13401 1 8 1Z" fill="#44F1A6"/>
</svg>
