<svg width="48" height="48" viewBox="0 0 48 48" fill="none" xmlns="http://www.w3.org/2000/svg">
<path d="M11 26C12.1046 26 13 25.1046 13 24C13 22.8954 12.1046 22 11 22C9.89543 22 9 22.8954 9 24C9 25.1046 9.89543 26 11 26Z" fill="#44F1A6"/>
<path d="M22 25C22.5523 25 23 24.5523 23 24C23 23.4477 22.5523 23 22 23C21.4477 23 21 23.4477 21 24C21 24.5523 21.4477 25 22 25Z" fill="#44F1A6"/>
<path d="M27 25C27.5523 25 28 24.5523 28 24C28 23.4477 27.5523 23 27 23C26.4477 23 26 23.4477 26 24C26 24.5523 26.4477 25 27 25Z" fill="#44F1A6"/>
<path d="M32 25C32.5523 25 33 24.5523 33 24C33 23.4477 32.5523 23 32 23C31.4477 23 31 23.4477 31 24C31 24.5523 31.4477 25 32 25Z" fill="#44F1A6"/>
<path d="M37 25C37.5523 25 38 24.5523 38 24C38 23.4477 37.5523 23 37 23C36.4477 23 36 23.4477 36 24C36 24.5523 36.4477 25 37 25Z" fill="#44F1A6"/>
<path fill-rule="evenodd" clip-rule="evenodd" d="M5 20C5 18.8954 5.89543 18 7 18H41C42.1046 18 43 18.8954 43 20V28C43 29.1046 42.1046 30 41 30H7C5.89543 30 5 29.1046 5 28V20ZM15 19C15.5523 19 16 19.4477 16 20V28C16 28.5523 15.5523 29 15 29H7C6.44772 29 6 28.5523 6 28V20C6 19.4477 6.44772 19 7 19H15ZM17 28C17 28.3643 16.9026 28.7058 16.7324 29H41C41.5523 29 42 28.5523 42 28V20C42 19.4477 41.5523 19 41 19H16.7324C16.9026 19.2942 17 19.6357 17 20V28Z" fill="#44F1A6"/>
<path fill-rule="evenodd" clip-rule="evenodd" d="M0 8C0 3.58172 3.58172 0 8 0H40C44.4183 0 48 3.58172 48 8V40C48 44.4183 44.4183 48 40 48H8C3.58172 48 0 44.4183 0 40V8ZM8 1H40C43.866 1 47 4.13401 47 8V40C47 43.866 43.866 47 40 47H8C4.13401 47 1 43.866 1 40V8C1 4.13401 4.13401 1 8 1Z" fill="#44F1A6"/>
</svg>
