<svg width="48" height="48" viewBox="0 0 48 48" fill="none" xmlns="http://www.w3.org/2000/svg">
<path d="M27.5 24C27.2239 24 27 24.2239 27 24.5C27 24.7761 27.2239 25 27.5 25H30.5C30.7761 25 31 24.7761 31 24.5C31 24.2239 30.7761 24 30.5 24H27.5Z" fill="#44F1A6"/>
<path fill-rule="evenodd" clip-rule="evenodd" d="M36 11C38.2091 11 40 12.7909 40 15V33C40 35.2091 38.2091 37 36 37H12C11.8619 37 11.7255 36.993 11.591 36.9793C9.574 36.7745 8 35.0711 8 33V15C8 12.7909 9.79086 11 12 11H36ZM34.6458 12H36C37.6569 12 39 13.3431 39 15V21H36V15C36 13.8053 35.4762 12.7329 34.6458 12ZM27.5 22H39V27H27.5C26.1193 27 25 25.8807 25 24.5C25 23.1193 26.1193 22 27.5 22ZM39 28H36V33C36 34.1947 35.4762 35.2671 34.6458 36H36C37.6569 36 39 34.6569 39 33V28ZM27.5 21H35V15C35 13.3431 33.6569 12 32 12H12C10.3431 12 9 13.3431 9 15V33C9 34.4497 10.0283 35.6593 11.3954 35.939C11.5907 35.979 11.7929 36 12 36H32C33.6569 36 35 34.6569 35 33V28H27.5C25.567 28 24 26.433 24 24.5C24 22.567 25.567 21 27.5 21Z" fill="#44F1A6"/>
<path fill-rule="evenodd" clip-rule="evenodd" d="M0 8C0 3.58172 3.58172 0 8 0H40C44.4183 0 48 3.58172 48 8V40C48 44.4183 44.4183 48 40 48H8C3.58172 48 0 44.4183 0 40V8ZM8 1H40C43.866 1 47 4.13401 47 8V40C47 43.866 43.866 47 40 47H8C4.13401 47 1 43.866 1 40V8C1 4.13401 4.13401 1 8 1Z" fill="#44F1A6"/>
</svg>
