<svg width="48" height="48" viewBox="0 0 48 48" fill="none" xmlns="http://www.w3.org/2000/svg">
<path fill-rule="evenodd" clip-rule="evenodd" d="M19 16V15C19 12.7909 20.7909 11 23 11H26C28.2091 11 30 12.7909 30 15V16H35.5C35.7761 16 36 16.2239 36 16.5C36 16.7761 35.7761 17 35.5 17H13.5C13.2239 17 13 16.7761 13 16.5C13 16.2239 13.2239 16 13.5 16H19ZM23 12H26C27.6569 12 29 13.3431 29 15V16H20V15C20 13.3431 21.3431 12 23 12Z" fill="#44F1A6"/>
<path d="M20.5 23C20.2239 23 20 23.2239 20 23.5V32.5C20 32.7761 20.2239 33 20.5 33C20.7761 33 21 32.7761 21 32.5V23.5C21 23.2239 20.7761 23 20.5 23Z" fill="#44F1A6"/>
<path d="M28.5 23C28.2239 23 28 23.2239 28 23.5V32.5C28 32.7761 28.2239 33 28.5 33C28.7761 33 29 32.7761 29 32.5V23.5C29 23.2239 28.7761 23 28.5 23Z" fill="#44F1A6"/>
<path d="M24.5 23C24.2239 23 24 23.2239 24 23.5V32.5C24 32.7761 24.2239 33 24.5 33C24.7761 33 25 32.7761 25 32.5V23.5C25 23.2239 24.7761 23 24.5 23Z" fill="#44F1A6"/>
<path fill-rule="evenodd" clip-rule="evenodd" d="M34 33C34 35.2091 32.2091 37 30 37H19C16.7909 37 15 35.2091 15 33V19H34V33ZM19 36C17.3431 36 16 34.6569 16 33V20H33V33C33 34.6569 31.6569 36 30 36H19Z" fill="#44F1A6"/>
<path fill-rule="evenodd" clip-rule="evenodd" d="M0 8C0 3.58172 3.58172 0 8 0H40C44.4183 0 48 3.58172 48 8V40C48 44.4183 44.4183 48 40 48H8C3.58172 48 0 44.4183 0 40V8ZM8 1H40C43.866 1 47 4.13401 47 8V40C47 43.866 43.866 47 40 47H8C4.13401 47 1 43.866 1 40V8C1 4.13401 4.13401 1 8 1Z" fill="#44F1A6"/>
</svg>
