<svg width="48" height="48" viewBox="0 0 48 48" fill="none" xmlns="http://www.w3.org/2000/svg">
<path fill-rule="evenodd" clip-rule="evenodd" d="M24 8C32.8366 8 40 15.1634 40 24C40 32.8366 32.8366 40 24 40C15.1634 40 8 32.8366 8 24C8 15.1634 15.1634 8 24 8ZM24 39C26.2922 39 28.5187 37.5107 30.2231 34.7837C30.5801 34.2125 30.9099 33.5926 31.2081 32.9302C29.0419 33.6145 26.593 34 24 34C21.407 34 18.9581 33.6145 16.7919 32.9302C17.0901 33.5926 17.4199 34.2125 17.7769 34.7837C19.4813 37.5107 21.7078 39 24 39ZM24 33C26.8305 33 29.4621 32.5228 31.7053 31.7053C32.5228 29.4621 33 26.8305 33 24C33 21.1695 32.5228 18.5379 31.7053 16.2947C29.4621 15.4772 26.8305 15 24 15C21.1695 15 18.5379 15.4772 16.2947 16.2947C15.4772 18.5379 15 21.1695 15 24C15 26.8305 15.4772 29.4621 16.2947 31.7053C18.5379 32.5228 21.1695 33 24 33ZM28.4572 38.3267C30.1116 37.0065 31.5051 34.9744 32.4811 32.4811C34.9744 31.5051 37.0065 30.1116 38.3267 28.4572C36.8661 33.1569 33.1569 36.8661 28.4572 38.3267ZM19.5428 9.67335C14.8431 11.1339 11.1339 14.8431 9.67335 19.5427C10.9935 17.8884 13.0256 16.4949 15.5189 15.5189C16.4949 13.0256 17.8884 10.9935 19.5428 9.67335ZM17.7769 13.2163C17.4199 13.7875 17.0901 14.4074 16.7919 15.0698C18.9581 14.3855 21.407 14 24 14C26.593 14 29.0419 14.3855 31.2081 15.0698C30.9099 14.4074 30.5801 13.7875 30.2231 13.2163C28.5187 10.4893 26.2922 9 24 9C21.7078 9 19.4813 10.4893 17.7769 13.2163ZM28.4572 9.67335C30.1116 10.9935 31.5051 13.0256 32.4811 15.5189C34.9744 16.4949 37.0065 17.8884 38.3267 19.5428C36.8661 14.8431 33.1569 11.1339 28.4572 9.67335ZM34.7837 17.7769C34.2125 17.4199 33.5926 17.0901 32.9302 16.7919C33.6145 18.9581 34 21.407 34 24C34 26.593 33.6145 29.0419 32.9302 31.2081C33.5926 30.9099 34.2125 30.5801 34.7837 30.2231C37.5107 28.5187 39 26.2922 39 24C39 21.7078 37.5107 19.4813 34.7837 17.7769ZM13.2163 17.7769C13.7875 17.4199 14.4074 17.0901 15.0698 16.7919C14.3855 18.9581 14 21.407 14 24C14 26.593 14.3855 29.0419 15.0698 31.2081C14.4074 30.9099 13.7875 30.5801 13.2163 30.2231C10.492 28.5204 9.00291 26.2966 9 24.0067L9 24C9 21.7078 10.4893 19.4813 13.2163 17.7769ZM9.67335 28.4572C10.9935 30.1116 13.0256 31.5051 15.5189 32.4811C16.4949 34.9744 17.8884 37.0065 19.5428 38.3267C14.8431 36.8661 11.1339 33.1568 9.67335 28.4572Z" fill="#44F1A6"/>
<path fill-rule="evenodd" clip-rule="evenodd" d="M0 8C0 3.58172 3.58172 0 8 0H40C44.4183 0 48 3.58172 48 8V40C48 44.4183 44.4183 48 40 48H8C3.58172 48 0 44.4183 0 40V8ZM8 1H40C43.866 1 47 4.13401 47 8V40C47 43.866 43.866 47 40 47H8C4.13401 47 1 43.866 1 40V8C1 4.13401 4.13401 1 8 1Z" fill="#44F1A6"/>
</svg>
