<svg width="48" height="48" viewBox="0 0 48 48" fill="none" xmlns="http://www.w3.org/2000/svg">
<path fill-rule="evenodd" clip-rule="evenodd" d="M12.3674 33.0686C12.7495 32.8586 13.1802 32.7468 13.6282 32.7468C14.3293 32.7468 14.9885 33.0198 15.4844 33.5156C15.9802 34.0112 16.2532 34.6707 16.2532 35.3716C16.2532 36.0728 15.9802 36.7322 15.4844 37.2278C14.9885 37.7236 14.3293 37.9968 13.6282 37.9968C12.927 37.9968 12.2678 37.7236 11.7722 37.2278C11.2764 36.7322 11.0032 36.073 11.0032 35.3718C11.0032 34.8457 11.157 34.3433 11.4431 33.9158C9.2207 31.1033 8 27.595 8 24C8 19.7263 9.66431 15.7083 12.6863 12.6863C15.7083 9.66431 19.7263 8 24 8C25.0718 8 26.1433 8.10669 27.1851 8.31714C27.5234 8.38574 27.7422 8.71533 27.6738 9.05371C27.6055 9.39209 27.2754 9.61084 26.9375 9.54248C25.9771 9.34839 24.9888 9.25 24 9.25C15.8667 9.25 9.25 15.8667 9.25 24C9.25 27.2834 10.3547 30.4885 12.3674 33.0686ZM13.6282 36.7468C13.9954 36.7468 14.3408 36.6038 14.6003 36.344C14.8601 36.0842 15.0032 35.739 15.0032 35.3718C15.0032 35.0044 14.8601 34.6592 14.6003 34.3994C14.3406 34.1399 13.9954 33.9968 13.6282 33.9968C13.261 33.9968 12.9155 34.1396 12.656 34.3994C12.3962 34.6592 12.2532 35.0044 12.2532 35.3718C12.2532 35.739 12.3962 36.0842 12.656 36.344C12.9158 36.6038 13.261 36.7468 13.6282 36.7468Z" fill="#44F1A6"/>
<path fill-rule="evenodd" clip-rule="evenodd" d="M36.228 10.772C37.1267 11.6707 37.2358 13.0642 36.5564 14.0835C38.7791 16.8962 40 20.4048 40 24C40 28.2737 38.3357 32.2917 35.3137 35.3137C32.2917 38.3357 28.2737 40 24 40C22.9387 40 21.8772 39.8953 20.8452 39.689C20.5068 39.6211 20.2874 39.292 20.355 38.9534C20.4229 38.615 20.7522 38.3955 21.0906 38.4631C22.042 38.6536 23.021 38.75 24 38.75C32.1333 38.75 38.75 32.1333 38.75 24C38.75 20.7166 37.6453 17.5117 35.6326 14.9314C35.2505 15.1414 34.8198 15.2532 34.3718 15.2532C33.6707 15.2532 33.0115 14.9802 32.5156 14.4844C32.0198 13.9885 31.7468 13.3293 31.7468 12.6282C31.7468 11.927 32.0198 11.2678 32.5156 10.772C33.0115 10.2764 33.6707 10.0032 34.3718 10.0032C35.073 10.0032 35.7322 10.2764 36.228 10.772ZM32.9968 12.6282C32.9968 12.9956 33.1399 13.3408 33.3997 13.6006C33.6592 13.8601 34.0044 14.0032 34.3718 14.0032C34.739 14.0032 35.0845 13.8601 35.3442 13.6006C35.8801 13.0645 35.8801 12.1921 35.3442 11.656C35.0845 11.3962 34.739 11.2532 34.3718 11.2532C34.0046 11.2532 33.6592 11.3962 33.3997 11.656C33.1399 11.9158 32.9968 12.261 32.9968 12.6282Z" fill="#44F1A6"/>
<path fill-rule="evenodd" clip-rule="evenodd" d="M24 18.8357C26.8477 18.8357 29.1643 21.1523 29.1643 24C29.1643 26.8477 26.8477 29.1643 24 29.1643C21.1523 29.1643 18.8357 26.8477 18.8357 24C18.8357 21.1523 21.1523 18.8357 24 18.8357ZM24 20.0857C21.8416 20.0857 20.0857 21.8416 20.0857 24C20.0857 26.1584 21.8416 27.9143 24 27.9143C26.1584 27.9143 27.9143 26.1582 27.9143 24C27.9143 21.8418 26.1584 20.0857 24 20.0857Z" fill="#44F1A6"/>
<path fill-rule="evenodd" clip-rule="evenodd" d="M21.4209 34.75C21.4209 35.0952 21.7009 35.375 22.0459 35.375H25.9539C26.2991 35.375 26.5789 35.0952 26.5789 34.75V33.5383C27.4006 33.3171 28.1863 32.9915 28.9246 32.5662L29.78 33.4216C29.8972 33.5388 30.0562 33.6047 30.2222 33.6047C30.3877 33.6047 30.5469 33.5388 30.6641 33.4214L33.4263 30.6572C33.6702 30.4131 33.6702 30.0173 33.4263 29.7734L32.5718 28.9189C32.9971 28.1807 33.3228 27.395 33.5439 26.5732H34.751C35.0962 26.5732 35.376 26.2935 35.376 25.9482V22.0403C35.376 21.6951 35.0962 21.4153 34.751 21.4153H33.5437C33.3225 20.5938 32.9971 19.8081 32.5718 19.0698L33.4216 18.22C33.5388 18.1028 33.6047 17.9436 33.6047 17.7778C33.6045 17.6121 33.5386 17.4529 33.4214 17.3357L30.657 14.5735C30.4131 14.3296 30.0173 14.3296 29.7732 14.5737L28.9246 15.4226C28.1863 14.9973 27.4006 14.6716 26.5789 14.4504V13.25C26.5789 12.9048 26.2991 12.625 25.9539 12.625H22.0459C21.7009 12.625 21.4209 12.9048 21.4209 13.25V14.4507C20.5994 14.6716 19.8137 14.9973 19.0754 15.4226L18.2266 14.5737C17.9827 14.3298 17.5869 14.3296 17.3428 14.5735L14.5786 17.3359C14.4612 17.4531 14.3953 17.6121 14.3953 17.7778C14.3953 17.9436 14.4612 18.1028 14.5784 18.22L15.4282 19.0698C15.0029 19.8081 14.6772 20.5935 14.4561 21.4153H13.2512C12.906 21.4153 12.6262 21.6951 12.6262 22.04L12.624 25.948C12.6238 26.1138 12.6897 26.2729 12.8069 26.3901C12.9241 26.5073 13.083 26.5732 13.249 26.5732H14.4561C14.6772 27.395 15.0029 28.1807 15.4282 28.9189L14.5737 29.7734C14.3298 30.0173 14.3296 30.4131 14.5737 30.6572L17.3359 33.4214C17.4531 33.5386 17.6121 33.6047 17.7778 33.6047C17.9436 33.6047 18.1028 33.5388 18.22 33.4216L19.0752 32.5662C19.8137 32.9915 20.5994 33.3171 21.4209 33.5383V34.75ZM19.3203 31.2517C19.073 31.0918 18.7476 31.1265 18.5391 31.3347L17.7781 32.0957L15.8994 30.2156L16.6597 29.4551C16.8679 29.2468 16.9026 28.9214 16.7427 28.6741C16.176 27.7971 15.7776 26.8359 15.5588 25.8169C15.4968 25.5291 15.2424 25.3232 14.9478 25.3232H13.8743L13.8757 22.6653H14.9478C15.2424 22.6653 15.4968 22.4597 15.5588 22.1716C15.7776 21.1528 16.176 20.1917 16.7427 19.3147C16.9026 19.0674 16.8679 18.7419 16.6597 18.5337L15.9043 17.7781L17.7844 15.8994L18.5391 16.6543C18.7476 16.8625 19.0728 16.897 19.3203 16.7373C20.197 16.1707 21.1582 15.7722 22.1772 15.5535C22.4651 15.4915 22.6709 15.2368 22.6709 14.9424V13.875H25.3289V14.9421C25.3289 15.2368 25.5344 15.4915 25.8225 15.5532C26.8413 15.7722 27.8027 16.1704 28.6794 16.7371C28.9268 16.897 29.2522 16.8625 29.4605 16.6541L30.2153 15.8994L32.0955 17.7781L31.3401 18.5334C31.1316 18.7419 31.0972 19.0674 31.2571 19.3147C31.8237 20.1917 32.2219 21.1528 32.4409 22.1716C32.5027 22.4597 32.7573 22.6653 33.052 22.6653H34.126V25.3232H33.052C32.7573 25.3232 32.5029 25.5291 32.4409 25.8169C32.2222 26.8357 31.8237 27.7971 31.2571 28.6738C31.0972 28.9214 31.1318 29.2468 31.3401 29.4551L32.1003 30.2153L30.2217 32.0955L29.4607 31.3347C29.2522 31.1262 28.9268 31.0918 28.6794 31.2517C27.8025 31.8184 26.8413 32.2166 25.8225 32.4355C25.5344 32.4976 25.3289 32.752 25.3289 33.0466V34.125H22.6709V33.0466C22.6709 32.7522 22.4651 32.4976 22.1772 32.4355C21.1584 32.2168 20.1973 31.8184 19.3203 31.2517Z" fill="#44F1A6"/>
<path fill-rule="evenodd" clip-rule="evenodd" d="M0 8C0 3.58172 3.58172 0 8 0H40C44.4183 0 48 3.58172 48 8V40C48 44.4183 44.4183 48 40 48H8C3.58172 48 0 44.4183 0 40V8ZM8 1H40C43.866 1 47 4.13401 47 8V40C47 43.866 43.866 47 40 47H8C4.13401 47 1 43.866 1 40V8C1 4.13401 4.13401 1 8 1Z" fill="#44F1A6"/>
</svg>
