<svg width="48" height="48" viewBox="0 0 48 48" fill="none" xmlns="http://www.w3.org/2000/svg">
<path fill-rule="evenodd" clip-rule="evenodd" d="M9.32325 8.35802L7.48313 13.7557L8.48797 18.727L7.56089 19.5768L8.57538 20.2176L7.90578 20.7915L8.87595 21.7078L8.32033 22.1624L9.8372 23.922L7.85763 30.5562L10.2276 37.9624L17.4056 35.9997L21.6979 39.5408H26.9698L30.7807 36.052L37.7179 37.7304L40.0885 30.5593L38.1114 23.8797L39.6914 22.1781L39.1101 21.6937L40.0636 20.9521L39.3176 20.2593L40.3409 19.5202L39.3127 18.7123L40.522 13.9276L38.619 8.58697L28.0541 12.1463H19.8964L9.32325 8.35802ZM9.40034 20.8275L10.2546 20.0954L9.20101 19.43L9.58005 19.0825L8.51687 13.8225L9.88333 9.81425L20.8972 18.0995L16.6908 21.4455L10.5633 23.2327L9.7477 22.2866L10.3894 21.7616L9.40034 20.8275ZM19.4164 13.0365L12.569 10.5832L20.698 16.6982L19.4164 13.0365ZM17.3188 22.2237L21.2729 19.0784L21.6177 24.8095L16.0523 24.6342L17.3188 22.2237ZM16.4847 25.6484L21.5555 25.8081L21.2656 27.4266L20.6335 26.1941L18.1743 27.3379L16.4847 25.6484ZM19.4684 27.8389L20.5151 28.1545L20.1828 27.5066L19.4684 27.8389ZM18.568 30.6917V28.6118L21.0804 29.3695L22.0625 33.298L21.9245 33.3769L18.568 30.6917ZM25.4723 33.0442H23.1105L22.2092 17.9889L20.5143 13.1463H27.4576L25.9518 18.0036L25.6772 25.3077L25.677 25.3133L25.4723 33.0442ZM27.3823 16.7663L28.5379 13.0385L35.5089 10.69L27.3823 16.7663ZM27.2568 18.1088L38.0695 10.024L39.478 13.9771L38.1839 19.0972L38.6795 19.4866L37.7437 20.1625L38.5214 20.8847L37.5158 21.6668L38.2406 22.2709L37.3954 23.1811L31.1516 21.3386L27.2568 18.1088ZM32.1085 22.6636L37.1488 24.1509L38.9026 30.0761L33.8903 30.2689L33.8855 30.2691L30.9707 30.3535L33.6666 24.9617L32.1085 22.6636ZM34.1798 31.2585L38.8637 31.0784L37.0576 36.5418L31.5065 35.1987C31.7358 34.8763 32.0293 34.4513 32.3464 33.9865C32.96 33.087 33.6674 32.0301 34.1798 31.2585ZM31.5203 33.423C31.3357 33.6935 31.1603 33.9488 31.0018 34.177L30.7037 31.3617L32.9531 31.2965C32.5058 31.9668 31.9856 32.7408 31.5203 33.423ZM27.7016 33.8074L29.757 31.9177L30.0554 34.7356L27.7016 33.8074ZM27.3591 34.7472L29.7116 35.675L27.507 37.6933L27.6064 37.0968L27.3591 34.7472ZM26.5118 37.5816L26.3519 38.5408H22.2897L22.1032 37.5816H26.5118ZM18.5353 35.6353L21.1207 37.7683L20.9907 37.0993L21.2844 34.7075L18.5353 35.6353ZM18.457 31.8835L20.8507 33.7984L18.115 34.7217L18.457 31.8835ZM17.5068 31.4103L17.1838 34.0909L15.246 31.3214L17.5068 31.4103ZM9.07478 31.0787L13.991 31.272L16.7071 35.1539L10.888 36.7451L9.07478 31.0787ZM10.7959 24.2065L9.04426 30.0767L17.2534 30.3995L14.6779 25.1L15.9349 22.7076L10.7959 24.2065ZM16.9881 27.566L17.568 28.7592V28.1459L16.9881 27.566ZM22.0618 36.5816L22.3433 34.2893L22.7722 34.0442H25.8342L26.306 34.2959L26.5466 36.5816H22.0618ZM26.5153 33.2742L26.698 33.3716L29.6617 30.647L29.7745 28.6171L27.2132 29.3658L26.5153 33.2742ZM31.8737 25.5579L30.1884 27.3424L27.5044 26.2003L27.0048 27.2829L26.7612 25.7995L31.8737 25.5579ZM32.1743 24.5426L26.697 24.8014L26.9105 19.1207L30.5376 22.1286L32.1743 24.5426ZM30.802 28.1491L31.1268 27.8052L30.7829 28.493L30.802 28.1491ZM28.0058 27.5004L27.69 28.1846L28.8303 27.8512L28.0058 27.5004Z" fill="#44F1A6"/>
<path fill-rule="evenodd" clip-rule="evenodd" d="M0 8C0 3.58172 3.58172 0 8 0H40C44.4183 0 48 3.58172 48 8V40C48 44.4183 44.4183 48 40 48H8C3.58172 48 0 44.4183 0 40V8ZM8 1H40C43.866 1 47 4.13401 47 8V40C47 43.866 43.866 47 40 47H8C4.13401 47 1 43.866 1 40V8C1 4.13401 4.13401 1 8 1Z" fill="#44F1A6"/>
</svg>
