<svg width="15" height="15" viewBox="0 0 15 15" fill="none" xmlns="http://www.w3.org/2000/svg">
<path d="M14.2886 0.146442C14.0933 -0.048806 13.7767 -0.0488222 13.5815 0.146442L7.21751 6.5104L0.853547 0.146442C0.658299 -0.048806 0.341705 -0.0488222 0.14644 0.146442C-0.0488189 0.341702 -0.0488081 0.658301 0.14644 0.853549L6.5104 7.21751L0.14644 13.5815C-0.0488189 13.7767 -0.0488081 14.0933 0.14644 14.2886C0.341689 14.4838 0.658288 14.4838 0.853547 14.2886L7.21751 7.92462L13.5815 14.2886C13.7767 14.4838 14.0933 14.4838 14.2886 14.2886C14.4838 14.0933 14.4838 13.7767 14.2886 13.5815L7.92461 7.21751L14.2886 0.853549C14.4838 0.658285 14.4838 0.341691 14.2886 0.146442Z" fill="#6B6B6B"/>
</svg>
