<svg width="10" height="10" viewBox="0 0 10 10" fill="none" xmlns="http://www.w3.org/2000/svg">
<path d="M9.67711 0.322889C9.24659 -0.107627 8.5486 -0.107633 8.11807 0.322889L5 3.44096L1.88193 0.322889C1.45141 -0.107627 0.753411 -0.107633 0.322889 0.322889C-0.107621 0.753399 -0.107627 1.45141 0.322889 1.88193L3.44096 5L0.322889 8.11807C-0.107633 8.5486 -0.107627 9.24659 0.322889 9.67711C0.753405 10.1076 1.4514 10.1076 1.88193 9.67711L5 6.55904L8.11807 9.67711C8.54859 10.1076 9.24659 10.1076 9.67711 9.67711C10.1076 9.24659 10.1076 8.54859 9.67711 8.11807L6.55904 5L9.67711 1.88193C10.1076 1.4514 10.1076 0.753405 9.67711 0.322889Z" fill="white"/>
</svg>
